<svg width="24" height="24" viewBox="0 0 24 24" fill="none" xmlns="http://www.w3.org/2000/svg">
<path d="M17.9846 0.0262756H6.01544C2.71784 0.0262756 0.0349731 2.70011 0.0349731 5.98662V18.0132C0.0349731 21.2995 2.71784 23.9736 6.01544 23.9736H17.9846C21.2822 23.9736 23.965 21.2995 23.965 18.0132V5.98659C23.965 2.70011 21.2822 0.0262996 17.9846 0.0262996V0.0262756ZM21.7501 18.0132C21.7501 20.0823 20.061 21.766 17.9847 21.766H6.01547C3.93913 21.766 2.24998 20.0823 2.24998 18.0132V10.2456H6.98149C6.63606 10.9763 6.44178 11.7913 6.44178 12.6509C6.44178 15.7729 8.9901 18.3124 12.1225 18.3124C15.2548 18.3124 17.8032 15.7729 17.8032 12.6509C17.8032 11.7913 17.6089 10.9763 17.2634 10.2456H21.7501V18.0132H21.7501ZM9.7643 12.6509C9.7643 11.3552 10.8221 10.3008 12.1225 10.3008C13.4229 10.3008 14.4807 11.3552 14.4807 12.6509C14.4807 13.9469 13.4229 15.0011 12.1225 15.0011C10.8222 15.0011 9.7643 13.9469 9.7643 12.6509V12.6509ZM21.7501 8.03816H15.4099C14.4811 7.37893 13.347 6.98948 12.1225 6.98948C10.898 6.98948 9.76377 7.37893 8.83516 8.03816H2.24998V5.98662C2.24998 3.91727 3.93913 2.23382 6.01547 2.23382H17.9847C20.061 2.23382 21.7501 3.91727 21.7501 5.98662V8.03816H21.7502H21.7501ZM19.35 3.57265H17.2968C16.9312 3.57265 16.6323 3.87068 16.6323 4.23491V6.28129C16.6323 6.64549 16.9312 6.94354 17.2968 6.94354H19.35C19.7155 6.94354 20.0145 6.64549 20.0145 6.28129V4.23491C20.0145 3.87068 19.7156 3.57265 19.35 3.57265Z" fill="#BBBBBB"/>
</svg>
