<svg width="24" height="24" viewBox="0 0 24 24" fill="none" xmlns="http://www.w3.org/2000/svg">
<g clip-path="url(#clip0)">
<path d="M16 12V11.999C16 11.0736 15.6791 10.1768 15.092 9.46152C14.5049 8.74619 13.688 8.25654 12.7804 8.076C11.8728 7.89545 10.9307 8.03519 10.1145 8.47138C9.2984 8.90758 8.65875 9.61326 8.30457 10.4682C7.95039 11.3231 7.90359 12.2744 8.17215 13.16C8.4407 14.0455 9.008 14.8106 9.77737 15.3248C10.5468 15.839 11.4706 16.0705 12.3916 15.9799C13.3125 15.8893 14.1736 15.4822 14.828 14.828C15.1993 14.469 15.4945 14.0389 15.6959 13.5633C15.8972 13.0877 16.0007 12.5764 16 12.06L15.999 11.997V12H16ZM18.16 12C18.1552 13.4184 17.659 14.7914 16.7559 15.8852C15.8528 16.9791 14.5986 17.7261 13.2067 17.9993C11.8148 18.2726 10.3712 18.055 9.12164 17.3837C7.87208 16.7124 6.89373 15.6289 6.35311 14.3175C5.81248 13.0061 5.74298 11.5479 6.15644 10.191C6.56989 8.83412 7.44075 7.66244 8.62081 6.87535C9.80087 6.08827 11.2172 5.73441 12.6288 5.874C14.0404 6.01359 15.36 6.63801 16.363 7.64099C16.9326 8.1937 17.3853 8.85528 17.6942 9.58641C18.003 10.3175 18.1618 11.1033 18.161 11.897L18.16 12.006V12.001V12ZM19.847 5.59399V5.59599C19.8471 5.92914 19.7317 6.25203 19.5204 6.50963C19.3091 6.76723 19.0151 6.94361 18.6884 7.0087C18.3616 7.07379 18.0224 7.02358 17.7286 6.86662C17.4347 6.70965 17.2043 6.45565 17.0768 6.14789C16.9492 5.84012 16.9323 5.49765 17.0289 5.17881C17.1255 4.85997 17.3297 4.5845 17.6067 4.39934C17.8836 4.21418 18.2162 4.13078 18.5478 4.16335C18.8794 4.19593 19.1894 4.34246 19.425 4.57799C19.681 4.82899 19.84 5.17899 19.84 5.56599V5.59499V5.59399H19.847ZM12.007 2.15399L10.812 2.14599C10.088 2.14065 9.53834 2.14065 9.163 2.14599C8.78767 2.15132 8.285 2.16699 7.655 2.19299C7.07 2.21299 6.515 2.27099 5.972 2.36299L6.045 2.35299C5.62 2.42299 5.243 2.52299 4.882 2.65599L4.925 2.64199C4.41501 2.847 3.95123 3.15206 3.56102 3.53918C3.17081 3.9263 2.86207 4.38764 2.653 4.89599L2.643 4.92299C2.51465 5.2743 2.41956 5.63689 2.359 6.00599L2.354 6.04299C2.26506 6.56844 2.21194 7.09933 2.195 7.63199L2.194 7.65299C2.168 8.28365 2.15234 8.78632 2.147 9.16099C2.14167 9.53565 2.14167 10.0853 2.147 10.81C2.15234 11.5347 2.155 11.933 2.155 12.005C2.155 12.077 2.15234 12.4753 2.147 13.2C2.14167 13.9247 2.14167 14.4743 2.147 14.849C2.15234 15.2237 2.168 15.7263 2.194 16.357C2.214 16.942 2.272 17.497 2.364 18.04L2.354 17.967C2.424 18.392 2.524 18.769 2.657 19.13L2.643 19.087C2.84802 19.597 3.15308 20.0608 3.5402 20.451C3.92732 20.8412 4.38865 21.1499 4.897 21.359L4.924 21.369C5.242 21.488 5.619 21.588 6.007 21.653L6.044 21.658C6.513 21.74 7.068 21.798 7.632 21.817L7.653 21.818C8.28367 21.844 8.78634 21.8597 9.161 21.865C9.53567 21.8703 10.0853 21.8703 10.81 21.865L11.998 21.841L13.193 21.849C13.917 21.8543 14.4667 21.8543 14.842 21.849C15.2173 21.8437 15.72 21.828 16.35 21.802C16.935 21.782 17.49 21.724 18.033 21.632L17.96 21.642C18.385 21.572 18.762 21.472 19.123 21.339L19.08 21.353C19.59 21.148 20.0538 20.8429 20.444 20.4558C20.8342 20.0687 21.1429 19.6073 21.352 19.099L21.362 19.072C21.481 18.754 21.581 18.377 21.646 17.989L21.651 17.952C21.733 17.483 21.791 16.928 21.81 16.364L21.811 16.343C21.837 15.7123 21.8527 15.2097 21.858 14.835C21.8633 14.4603 21.8633 13.9107 21.858 13.186C21.8527 12.4613 21.85 12.063 21.85 11.991C21.85 11.919 21.8527 11.5207 21.858 10.796C21.8633 10.0713 21.8633 9.52165 21.858 9.14699C21.8527 8.77232 21.837 8.26965 21.811 7.63899C21.791 7.05399 21.733 6.49899 21.641 5.95599L21.651 6.02899C21.5876 5.63249 21.4861 5.24303 21.348 4.86599L21.362 4.90899C21.157 4.39899 20.8519 3.93521 20.4648 3.545C20.0777 3.15479 19.6163 2.84605 19.108 2.63699L19.081 2.62699C18.7297 2.49863 18.3671 2.40355 17.998 2.34299L17.961 2.33799C17.4359 2.24909 16.9053 2.19597 16.373 2.17899L16.352 2.17799C15.7213 2.15199 15.2187 2.13632 14.844 2.13099C14.4693 2.12565 13.9197 2.12565 13.195 2.13099L12.007 2.15399ZM24 12C24 14.3853 23.9733 16.0363 23.92 16.953C23.9673 17.882 23.8188 18.8105 23.4843 19.6785C23.1498 20.5464 22.6366 21.3344 21.978 21.9913C21.3195 22.6483 20.5303 23.1595 19.6615 23.4919C18.7928 23.8243 17.8639 23.9705 16.935 23.921L16.951 23.922C16.0343 23.9753 14.3833 24.002 11.998 24.002C9.61267 24.002 7.96167 23.9753 7.045 23.922C6.11602 23.9693 5.18747 23.8208 4.31953 23.4863C3.45158 23.1517 2.66361 22.6386 2.00668 21.98C1.34974 21.3215 0.838494 20.5323 0.506073 19.6635C0.173651 18.7948 0.0274701 17.8659 0.0770022 16.937L0.0760022 16.953C0.0226689 16.0363 -0.0039978 14.3853 -0.0039978 12C-0.0039978 9.61465 0.0226689 7.96365 0.0760022 7.04699C0.0287336 6.118 0.177178 5.18945 0.511715 4.32151C0.846253 3.45357 1.35942 2.6656 2.01796 2.00866C2.6765 1.35172 3.46572 0.840478 4.33447 0.508056C5.20323 0.175635 6.13214 0.0294537 7.061 0.0789858L7.045 0.0779858C7.96167 0.0246525 9.61267 -0.00201416 11.998 -0.00201416C14.3833 -0.00201416 16.0343 0.0246525 16.951 0.0779858C17.88 0.0307173 18.8085 0.179161 19.6765 0.513699C20.5444 0.848236 21.3324 1.3614 21.9893 2.01994C22.6463 2.67848 23.1575 3.4677 23.4899 4.33646C23.8224 5.20521 23.9685 6.13412 23.919 7.06299L23.92 7.04699C23.9733 7.96299 24 9.61399 24 12Z" fill="#BBBBBB"/>
</g>
<defs>
<clipPath id="clip0">
<rect width="24" height="24" fill="white"/>
</clipPath>
</defs>
</svg>
